<svg width="715" height="604" viewBox="0 0 715 604" fill="none" xmlns="http://www.w3.org/2000/svg">
<g opacity="0.6">
<g filter="url(#filter0_f_195_18344)">
<circle cx="223" cy="153" r="120" fill="#FFF0C8"/>
</g>
<g filter="url(#filter1_f_195_18344)">
<circle cx="419" cy="72" r="99" fill="#C8FFF2"/>
</g>
<g filter="url(#filter2_f_195_18344)">
<rect x="420" y="106" width="196" height="197" fill="#C8DEFF"/>
</g>
<g filter="url(#filter3_f_195_18344)">
<path d="M357 223L473.047 424H240.953L357 223Z" fill="white"/>
</g>
<path fill-rule="evenodd" clip-rule="evenodd" d="M350 558C551.584 558 715 394.584 715 193C715 -5.00734 557.331 -166.189 360.693 -171.846C359.472 -171.885 358.25 -171.917 357.025 -171.941C355.688 -171.98 354.346 -172 353 -172C352.956 -172 352.912 -172 352.869 -172L352.731 -172L352.5 -172C352.355 -172 352.21 -172 352.066 -171.999C351.877 -172 351.689 -172 351.5 -172L351.286 -172L351 -172L350.726 -172L350.5 -172L350.286 -172L350 -172C148.416 -172 -15 -8.58394 -15 193C-15 394.584 148.416 558 350 558ZM328.415 -167.233C327.369 -167.171 326.324 -167.105 325.281 -167.035C284.19 -155.169 254.126 -117.113 254.126 -72C254.126 -17.3967 298.17 26.8679 352.5 26.8679C406.83 26.8679 450.874 -17.3967 450.874 -72C450.874 -116.476 421.653 -154.092 381.454 -166.516C380.562 -166.593 379.67 -166.667 378.776 -166.737C402.419 -156.622 419 -133.012 419 -105.5C419 -68.7731 389.451 -39 353 -39C316.549 -39 287 -68.7731 287 -105.5C287 -133.471 304.14 -157.409 328.415 -167.233ZM330.87 -167.37C337.204 -167.7 343.583 -167.868 350 -167.868C358.853 -167.868 367.631 -167.549 376.325 -166.922C400.843 -157.464 418.253 -133.531 418.253 -105.5C418.253 -69.1888 389.038 -39.7528 353 -39.7528C316.962 -39.7528 287.747 -69.1888 287.747 -105.5C287.747 -133.984 305.724 -158.237 330.87 -167.37ZM253 -72C253 -114.982 279.982 -151.631 317.852 -165.77C261.742 -150.37 220.517 -98.9994 220.517 -38C220.517 35.1684 279.832 94.483 353 94.483C426.168 94.483 485.483 35.1684 485.483 -38C485.483 -99.227 443.949 -150.753 387.519 -165.941C387.135 -165.981 386.751 -166.02 386.366 -166.058C424.646 -152.134 452 -115.277 452 -72C452 -16.7715 407.452 28 352.5 28C297.548 28 253 -16.7715 253 -72ZM308.901 -164.574C237.531 -145.696 184.908 -80.5119 184.908 -3C184.908 89.2795 259.494 164.087 351.5 164.087C443.506 164.087 518.092 89.2795 518.092 -3C518.092 -75.4017 472.178 -137.048 407.96 -160.247C454.559 -139.264 487 -92.4205 487 -38C487 36.0061 427.006 96 353 96C278.994 96 219 36.0061 219 -38C219 -96.5563 256.559 -146.34 308.901 -164.574ZM183 -3C183 -75.1526 228.082 -136.744 291.536 -160.986C208.082 -135.717 147.326 -58.2038 147.326 33.5C147.326 145.71 238.29 236.674 350.5 236.674C462.71 236.674 553.674 145.71 553.674 33.5C553.674 -54.4107 497.84 -129.281 419.7 -157.585C478.783 -131.324 520 -71.9898 520 -3C520 90.3361 444.56 166 351.5 166C258.44 166 183 90.3361 183 -3ZM262.668 -152.338C175.365 -117.373 113.717 -32.1209 113.717 67.5C113.717 198.275 219.952 304.289 351 304.289C482.048 304.289 588.283 198.275 588.283 67.5C588.283 -34.5093 523.643 -121.453 433.008 -154.766C505.422 -122.984 556 -50.6487 556 33.5C556 146.995 463.995 239 350.5 239C237.005 239 145 146.995 145 33.5C145 -48.5711 193.111 -119.405 262.668 -152.338ZM615.966 96C615.966 -9.194 554.665 -100.07 465.837 -142.855C540.411 -102.227 591 -23.2592 591 67.5C591 199.772 483.548 307 351 307C218.452 307 111 199.772 111 67.5C111 -23.2592 161.589 -102.227 236.163 -142.855C147.335 -100.07 86.034 -9.19398 86.034 96C86.034 242.337 204.663 360.966 351 360.966C497.337 360.966 615.966 242.337 615.966 96ZM477.084 -140.548C577.847 -93.1574 647.604 9.27507 647.604 128C647.604 291.81 514.81 424.604 351 424.604C187.19 424.604 54.3962 291.81 54.3962 128C54.3962 9.2749 124.153 -93.1577 224.916 -140.549C140.466 -95.441 83 -6.43141 83 96C83 244.012 202.988 364 351 364C499.012 364 619 244.012 619 96C619 -6.43127 561.535 -95.4408 477.084 -140.548ZM679.23 161C679.23 35.0576 608.514 -74.3681 504.622 -129.736C592.291 -77.3689 651 18.4595 651 128C651 293.685 516.685 428 351 428C185.315 428 51 293.685 51 128C51 11.9798 116.86 -88.6581 213.234 -138.567C99.6728 -86.6368 20.7698 27.9672 20.7698 161C20.7698 342.829 168.171 490.23 350 490.23C531.829 490.23 679.23 342.829 679.23 161ZM519.999 -125.398C633.591 -64.6216 710.868 55.1647 710.868 193C710.868 392.302 549.302 553.868 350 553.868C150.698 553.868 -10.8679 392.302 -10.8679 193C-10.8679 55.1646 66.4088 -64.6217 180.001 -125.398C82.3998 -67.3391 17 39.193 17 161C17 344.911 166.089 494 350 494C533.911 494 683 344.911 683 161C683 39.1931 617.6 -67.339 519.999 -125.398Z" fill="url(#paint0_linear_195_18344)"/>
</g>
<defs>
<filter id="filter0_f_195_18344" x="-77" y="-147" width="600" height="600" filterUnits="userSpaceOnUse" color-interpolation-filters="sRGB">
<feFlood flood-opacity="0" result="BackgroundImageFix"/>
<feBlend mode="normal" in="SourceGraphic" in2="BackgroundImageFix" result="shape"/>
<feGaussianBlur stdDeviation="90" result="effect1_foregroundBlur_195_18344"/>
</filter>
<filter id="filter1_f_195_18344" x="140" y="-207" width="558" height="558" filterUnits="userSpaceOnUse" color-interpolation-filters="sRGB">
<feFlood flood-opacity="0" result="BackgroundImageFix"/>
<feBlend mode="normal" in="SourceGraphic" in2="BackgroundImageFix" result="shape"/>
<feGaussianBlur stdDeviation="90" result="effect1_foregroundBlur_195_18344"/>
</filter>
<filter id="filter2_f_195_18344" x="240" y="-74" width="556" height="557" filterUnits="userSpaceOnUse" color-interpolation-filters="sRGB">
<feFlood flood-opacity="0" result="BackgroundImageFix"/>
<feBlend mode="normal" in="SourceGraphic" in2="BackgroundImageFix" result="shape"/>
<feGaussianBlur stdDeviation="90" result="effect1_foregroundBlur_195_18344"/>
</filter>
<filter id="filter3_f_195_18344" x="60.9521" y="43" width="592.096" height="561" filterUnits="userSpaceOnUse" color-interpolation-filters="sRGB">
<feFlood flood-opacity="0" result="BackgroundImageFix"/>
<feBlend mode="normal" in="SourceGraphic" in2="BackgroundImageFix" result="shape"/>
<feGaussianBlur stdDeviation="90" result="effect1_foregroundBlur_195_18344"/>
</filter>
<linearGradient id="paint0_linear_195_18344" x1="357" y1="-88" x2="357" y2="474" gradientUnits="userSpaceOnUse">
<stop stop-color="white"/>
<stop offset="1" stop-color="white" stop-opacity="0"/>
</linearGradient>
</defs>
</svg>
