<svg width="554" height="267" viewBox="0 0 554 267" fill="none" xmlns="http://www.w3.org/2000/svg">
<g clip-path="url(#clip0_17615_106355)">
<rect x="61" y="116" width="434" height="151" rx="8" fill="white"/>
<path d="M87.336 149.72H89.752C90.2853 149.72 90.7307 149.6 91.088 149.36C91.4507 149.12 91.7227 148.797 91.904 148.392C92.0907 147.981 92.184 147.523 92.184 147.016C92.184 146.456 92.0587 146.008 91.808 145.672C91.5573 145.331 91.112 145.16 90.472 145.16H88.08L88.88 144.488L87.016 155H85.448L87.416 143.8H90.504C91.24 143.8 91.8507 143.907 92.336 144.12C92.8213 144.328 93.184 144.653 93.424 145.096C93.664 145.539 93.784 146.109 93.784 146.808C93.784 147.592 93.6693 148.256 93.44 148.8C93.2107 149.344 92.904 149.784 92.52 150.12C92.136 150.456 91.704 150.701 91.224 150.856C90.7493 151.005 90.264 151.08 89.768 151.08H87.096L87.336 149.72ZM93.6913 155L95.0673 147.16H96.3313L96.1953 149.336L95.1953 155H93.6913ZM96.1153 149.56L96.1073 148.592C96.4219 148.203 96.7233 147.883 97.0113 147.632C97.3046 147.376 97.5926 147.187 97.8753 147.064C98.1633 146.936 98.4539 146.872 98.7473 146.872H98.9713L98.3953 148.456H97.8673C97.6539 148.456 97.4299 148.512 97.1953 148.624C96.9606 148.731 96.7446 148.869 96.5473 149.04C96.3553 149.211 96.2113 149.384 96.1153 149.56ZM101.609 155.16C100.942 155.16 100.39 155.016 99.9525 154.728C99.5152 154.435 99.1872 154.037 98.9685 153.536C98.7552 153.035 98.6485 152.472 98.6485 151.848C98.6485 151.203 98.7525 150.589 98.9605 150.008C99.1738 149.427 99.4725 148.912 99.8565 148.464C100.241 148.011 100.694 147.653 101.217 147.392C101.745 147.131 102.323 147 102.953 147C103.619 147 104.171 147.147 104.609 147.44C105.046 147.733 105.371 148.133 105.585 148.64C105.803 149.141 105.913 149.704 105.913 150.328C105.913 150.968 105.806 151.579 105.593 152.16C105.385 152.736 105.089 153.251 104.705 153.704C104.321 154.157 103.865 154.515 103.337 154.776C102.814 155.032 102.238 155.16 101.609 155.16ZM101.817 153.88C102.35 153.88 102.811 153.725 103.201 153.416C103.59 153.107 103.891 152.693 104.105 152.176C104.318 151.653 104.425 151.075 104.425 150.44C104.425 149.72 104.283 149.181 104.001 148.824C103.718 148.461 103.299 148.28 102.745 148.28C102.211 148.28 101.75 148.435 101.361 148.744C100.971 149.053 100.67 149.469 100.457 149.992C100.243 150.509 100.137 151.085 100.137 151.72C100.137 152.429 100.275 152.968 100.553 153.336C100.835 153.699 101.257 153.88 101.817 153.88ZM108.725 145.176C108.8 144.76 108.92 144.389 109.085 144.064C109.256 143.733 109.498 143.475 109.813 143.288C110.128 143.096 110.538 143 111.045 143C111.36 143 111.624 143.029 111.837 143.088C112.056 143.141 112.197 143.181 112.261 143.208L111.861 144.424C111.717 144.365 111.576 144.328 111.437 144.312C111.304 144.291 111.184 144.28 111.077 144.28C110.842 144.28 110.661 144.339 110.533 144.456C110.41 144.573 110.312 144.773 110.237 145.056C110.168 145.333 110.09 145.715 110.005 146.2L108.453 155H106.997L108.725 145.176ZM107.029 148.28L107.381 147.16H111.637L111.429 148.28H107.029ZM111.457 155L112.833 147.16H114.289L112.913 155H111.457ZM113.153 145.4L113.425 143.8H114.881L114.609 145.4H113.153ZM117.087 155.16C116.511 155.16 116.105 155.013 115.871 154.72C115.636 154.427 115.519 154.088 115.519 153.704C115.519 153.672 115.524 153.613 115.535 153.528C115.545 153.443 115.572 153.261 115.615 152.984C115.663 152.701 115.737 152.264 115.839 151.672C115.94 151.075 116.081 150.256 116.263 149.216C116.449 148.176 116.687 146.845 116.975 145.224L118.447 145.08L117.023 153.384C117.023 153.672 117.108 153.848 117.279 153.912C117.455 153.976 117.769 154.008 118.223 154.008H118.607L118.287 155.16H117.087ZM115.279 148.28L115.599 147.16H119.855L119.647 148.28H115.279Z" fill="#202833"/>
<path d="M90.928 201.184L90.424 205.456H88.552L89.536 201.184H90.928ZM92.752 185.848L93.232 181.744H95.104L94.144 185.848H92.752ZM89.512 202.336C88.408 202.336 87.44 202.224 86.608 202C85.784 201.776 85.168 201.528 84.76 201.256L85.528 198.592C85.984 198.984 86.576 199.364 87.304 199.732C88.032 200.092 88.888 200.272 89.872 200.272C90.56 200.272 91.2 200.172 91.792 199.972C92.384 199.764 92.86 199.448 93.22 199.024C93.58 198.6 93.76 198.056 93.76 197.392C93.76 196.8 93.616 196.32 93.328 195.952C93.04 195.584 92.652 195.276 92.164 195.028C91.676 194.78 91.136 194.536 90.544 194.296C90.104 194.112 89.644 193.92 89.164 193.72C88.692 193.52 88.252 193.276 87.844 192.988C87.444 192.7 87.116 192.344 86.86 191.92C86.612 191.496 86.488 190.976 86.488 190.36C86.488 189.824 86.6 189.24 86.824 188.608C87.056 187.976 87.42 187.376 87.916 186.808C88.42 186.24 89.08 185.776 89.896 185.416C90.712 185.048 91.704 184.864 92.872 184.864C93.872 184.864 94.76 184.988 95.536 185.236C96.32 185.476 96.952 185.736 97.432 186.016L96.784 188.44C96.136 187.944 95.496 187.568 94.864 187.312C94.232 187.056 93.512 186.928 92.704 186.928C92.176 186.928 91.624 187.024 91.048 187.216C90.48 187.408 89.996 187.708 89.596 188.116C89.204 188.524 89.008 189.048 89.008 189.688C89.008 190.36 89.252 190.868 89.74 191.212C90.236 191.548 90.904 191.88 91.744 192.208C92.288 192.416 92.828 192.636 93.364 192.868C93.908 193.092 94.4 193.372 94.84 193.708C95.288 194.036 95.648 194.456 95.92 194.968C96.192 195.472 96.328 196.112 96.328 196.888C96.328 197.52 96.216 198.156 95.992 198.796C95.768 199.436 95.396 200.024 94.876 200.56C94.356 201.096 93.656 201.528 92.776 201.856C91.904 202.176 90.816 202.336 89.512 202.336ZM99.7324 202L102.312 187.48L103.08 187.78C102.432 188.276 101.884 188.668 101.436 188.956C100.996 189.236 100.612 189.452 100.284 189.604C99.9644 189.748 99.6604 189.864 99.3724 189.952L99.3484 187.816C99.8124 187.672 100.292 187.468 100.788 187.204C101.292 186.932 101.768 186.624 102.216 186.28C102.664 185.936 103.044 185.576 103.356 185.2H104.916L101.94 202H99.7324ZM105.022 201.976L110.566 195.016C111.31 194.08 111.926 193.272 112.414 192.592C112.902 191.912 113.262 191.296 113.494 190.744C113.734 190.184 113.854 189.624 113.854 189.064C113.854 188.44 113.678 187.944 113.326 187.576C112.982 187.208 112.486 187.024 111.838 187.024C111.038 187.024 110.27 187.224 109.534 187.624C108.806 188.024 108.086 188.536 107.374 189.16L107.518 186.76C108.134 186.24 108.862 185.796 109.702 185.428C110.55 185.052 111.43 184.864 112.342 184.864C113.654 184.864 114.634 185.216 115.282 185.92C115.93 186.624 116.254 187.552 116.254 188.704C116.254 189.536 116.106 190.316 115.81 191.044C115.514 191.772 115.078 192.536 114.502 193.336C113.934 194.128 113.238 195.04 112.414 196.072L108.706 200.716L108.322 199.912H115.078L114.718 201.976H105.022ZM118.109 204.568H116.741L118.061 202H117.221L117.677 199.456H120.269L119.861 201.76L118.109 204.568ZM127.875 202.336C126.683 202.336 125.679 202.064 124.863 201.52C124.047 200.976 123.427 200.212 123.003 199.228C122.587 198.244 122.379 197.096 122.379 195.784C122.379 194.384 122.579 193.032 122.979 191.728C123.387 190.424 123.967 189.256 124.719 188.224C125.479 187.192 126.383 186.376 127.431 185.776C128.487 185.168 129.659 184.864 130.947 184.864C132.099 184.864 133.087 185.124 133.911 185.644C134.735 186.156 135.367 186.888 135.807 187.84C136.247 188.784 136.467 189.904 136.467 191.2C136.467 192.576 136.259 193.928 135.843 195.256C135.435 196.576 134.851 197.772 134.091 198.844C133.339 199.908 132.435 200.756 131.379 201.388C130.331 202.02 129.163 202.336 127.875 202.336ZM128.235 200.272C129.195 200.272 130.039 200.012 130.767 199.492C131.495 198.964 132.103 198.264 132.591 197.392C133.079 196.52 133.447 195.552 133.695 194.488C133.943 193.424 134.067 192.352 134.067 191.272C134.067 189.816 133.755 188.728 133.131 188.008C132.515 187.288 131.667 186.928 130.587 186.928C129.619 186.928 128.771 187.188 128.043 187.708C127.323 188.22 126.723 188.908 126.243 189.772C125.763 190.628 125.403 191.58 125.163 192.628C124.923 193.668 124.803 194.712 124.803 195.76C124.803 197.208 125.091 198.324 125.667 199.108C126.251 199.884 127.107 200.272 128.235 200.272ZM144.07 202.336C142.878 202.336 141.874 202.064 141.058 201.52C140.242 200.976 139.622 200.212 139.198 199.228C138.782 198.244 138.574 197.096 138.574 195.784C138.574 194.384 138.774 193.032 139.174 191.728C139.582 190.424 140.162 189.256 140.914 188.224C141.674 187.192 142.578 186.376 143.626 185.776C144.682 185.168 145.854 184.864 147.142 184.864C148.294 184.864 149.282 185.124 150.106 185.644C150.93 186.156 151.562 186.888 152.002 187.84C152.442 188.784 152.662 189.904 152.662 191.2C152.662 192.576 152.454 193.928 152.038 195.256C151.63 196.576 151.046 197.772 150.286 198.844C149.534 199.908 148.63 200.756 147.574 201.388C146.526 202.02 145.358 202.336 144.07 202.336ZM144.43 200.272C145.39 200.272 146.234 200.012 146.962 199.492C147.69 198.964 148.298 198.264 148.786 197.392C149.274 196.52 149.642 195.552 149.89 194.488C150.138 193.424 150.262 192.352 150.262 191.272C150.262 189.816 149.95 188.728 149.326 188.008C148.71 187.288 147.862 186.928 146.782 186.928C145.814 186.928 144.966 187.188 144.238 187.708C143.518 188.22 142.918 188.908 142.438 189.772C141.958 190.628 141.598 191.58 141.358 192.628C141.118 193.668 140.998 194.712 140.998 195.76C140.998 197.208 141.286 198.324 141.862 199.108C142.446 199.884 143.302 200.272 144.43 200.272ZM153.713 202L154.145 199.456H156.737L156.305 202H153.713ZM165.059 202L167.507 188.2L167.891 188.872L161.411 196.36L161.003 195.712H170.303L169.967 197.656H157.715L168.587 185.2H170.243L167.267 202H165.059ZM178.537 193.768C177.737 193.768 177.017 193.62 176.377 193.324C175.745 193.02 175.245 192.596 174.877 192.052C174.509 191.508 174.321 190.872 174.313 190.144C174.313 189.16 174.557 188.268 175.045 187.468C175.541 186.668 176.213 186.036 177.061 185.572C177.917 185.1 178.873 184.864 179.929 184.864C180.881 184.864 181.657 185.036 182.257 185.38C182.857 185.716 183.297 186.168 183.577 186.736C183.865 187.304 184.009 187.928 184.009 188.608C184.009 189.624 183.765 190.52 183.277 191.296C182.789 192.072 182.129 192.68 181.297 193.12C180.473 193.552 179.553 193.768 178.537 193.768ZM178.777 191.896C179.641 191.896 180.345 191.612 180.889 191.044C181.433 190.468 181.705 189.768 181.705 188.944C181.705 188.328 181.533 187.84 181.189 187.48C180.853 187.112 180.337 186.928 179.641 186.928C178.753 186.928 178.025 187.208 177.457 187.768C176.897 188.328 176.617 189.024 176.617 189.856C176.617 190.432 176.801 190.916 177.169 191.308C177.537 191.7 178.073 191.896 178.777 191.896ZM177.097 202.336C176.121 202.336 175.261 202.164 174.517 201.82C173.773 201.468 173.193 200.976 172.777 200.344C172.361 199.712 172.153 198.968 172.153 198.112C172.153 197.256 172.325 196.46 172.669 195.724C173.013 194.988 173.489 194.344 174.097 193.792C174.713 193.232 175.417 192.796 176.209 192.484C177.009 192.172 177.857 192.016 178.753 192.016C180.233 192.016 181.397 192.396 182.245 193.156C183.101 193.916 183.529 194.944 183.529 196.24C183.529 197.432 183.241 198.488 182.665 199.408C182.089 200.32 181.313 201.036 180.337 201.556C179.369 202.076 178.289 202.336 177.097 202.336ZM177.289 200.272C178.049 200.272 178.721 200.112 179.305 199.792C179.889 199.464 180.345 199.016 180.673 198.448C181.001 197.88 181.161 197.232 181.153 196.504C181.145 195.704 180.901 195.068 180.421 194.596C179.941 194.124 179.273 193.888 178.417 193.888C177.657 193.888 176.981 194.072 176.389 194.44C175.805 194.8 175.349 195.284 175.021 195.892C174.693 196.492 174.529 197.152 174.529 197.872C174.537 198.616 174.781 199.204 175.261 199.636C175.749 200.06 176.425 200.272 177.289 200.272Z" fill="#202833"/>
<rect x="85" y="219" width="54" height="24" rx="12" fill="#2DE577"/>
<path d="M101.046 229.38L96.9998 225.333L92.9531 229.38" stroke="white" stroke-miterlimit="10" stroke-linecap="round" stroke-linejoin="round"/>
<path d="M97 236.666V225.446" stroke="white" stroke-miterlimit="10" stroke-linecap="round" stroke-linejoin="round"/>
<path d="M111.919 237L110.799 236.069C111.093 235.92 111.413 235.728 111.758 235.495C112.108 235.262 112.453 234.991 112.794 234.683C113.135 234.37 113.445 234.025 113.725 233.647C114.01 233.269 114.236 232.861 114.404 232.422C114.577 231.983 114.663 231.521 114.663 231.036L115.146 231.701C114.913 232.116 114.579 232.452 114.145 232.709C113.716 232.961 113.179 233.087 112.535 233.087C111.98 233.087 111.485 232.961 111.051 232.709C110.617 232.452 110.274 232.102 110.022 231.659C109.77 231.211 109.644 230.702 109.644 230.133C109.644 229.517 109.777 228.973 110.043 228.502C110.309 228.031 110.682 227.664 111.163 227.403C111.648 227.137 112.215 227.004 112.864 227.004C113.55 227.004 114.143 227.156 114.642 227.459C115.141 227.762 115.526 228.189 115.797 228.74C116.072 229.286 116.21 229.923 116.21 230.651C116.21 231.407 116.079 232.116 115.818 232.779C115.557 233.442 115.214 234.046 114.789 234.592C114.369 235.133 113.907 235.609 113.403 236.02C112.904 236.426 112.409 236.753 111.919 237ZM112.85 231.694C113.34 231.694 113.739 231.54 114.047 231.232C114.355 230.919 114.509 230.53 114.509 230.063C114.509 229.587 114.355 229.193 114.047 228.88C113.739 228.563 113.34 228.404 112.85 228.404C112.365 228.404 111.968 228.565 111.66 228.887C111.352 229.204 111.198 229.599 111.198 230.07C111.198 230.532 111.352 230.919 111.66 231.232C111.968 231.54 112.365 231.694 112.85 231.694ZM117.294 237V235.25H119.002V237H117.294ZM121.497 237V229.51C121.259 229.683 121.035 229.818 120.825 229.916C120.619 230.014 120.407 230.089 120.188 230.14L120.006 228.726C120.225 228.67 120.461 228.563 120.713 228.404C120.969 228.245 121.205 228.061 121.42 227.851C121.634 227.641 121.795 227.424 121.903 227.2H123.107V237H121.497ZM127.363 232.604C126.864 232.604 126.437 232.483 126.082 232.24C125.727 231.993 125.457 231.657 125.27 231.232C125.083 230.803 124.99 230.313 124.99 229.762C124.99 228.927 125.207 228.259 125.641 227.76C126.08 227.256 126.654 227.004 127.363 227.004C128.077 227.004 128.649 227.256 129.078 227.76C129.512 228.259 129.729 228.927 129.729 229.762C129.729 230.313 129.636 230.803 129.449 231.232C129.262 231.657 128.992 231.993 128.637 232.24C128.287 232.483 127.862 232.604 127.363 232.604ZM127.363 231.463C127.694 231.463 127.951 231.316 128.133 231.022C128.315 230.723 128.406 230.303 128.406 229.762C128.406 229.221 128.31 228.817 128.119 228.551C127.932 228.28 127.68 228.145 127.363 228.145C127.055 228.145 126.803 228.28 126.607 228.551C126.416 228.817 126.32 229.221 126.32 229.762C126.32 230.303 126.406 230.723 126.579 231.022C126.756 231.316 127.018 231.463 127.363 231.463ZM127.251 237L132.984 227.2H134.293L128.574 237H127.251ZM134.167 237.196C133.668 237.196 133.241 237.075 132.886 236.832C132.531 236.585 132.261 236.249 132.074 235.824C131.887 235.395 131.794 234.905 131.794 234.354C131.794 233.519 132.011 232.851 132.445 232.352C132.884 231.848 133.458 231.596 134.167 231.596C134.881 231.596 135.453 231.848 135.882 232.352C136.316 232.851 136.533 233.519 136.533 234.354C136.533 234.905 136.44 235.395 136.253 235.824C136.066 236.249 135.796 236.585 135.441 236.832C135.091 237.075 134.666 237.196 134.167 237.196ZM134.167 236.055C134.498 236.055 134.755 235.908 134.937 235.614C135.119 235.315 135.21 234.895 135.21 234.354C135.21 233.813 135.114 233.409 134.923 233.143C134.736 232.872 134.484 232.737 134.167 232.737C133.859 232.737 133.607 232.872 133.411 233.143C133.22 233.409 133.124 233.813 133.124 234.354C133.124 234.895 133.21 235.315 133.383 235.614C133.56 235.908 133.822 236.055 134.167 236.055Z" fill="white"/>
<path opacity="0.2" d="M226.849 199.04L213 191.489V243H419V189.24C413.114 184.741 411.82 180.539 400.304 182.01C391.357 183.153 389.618 194.932 381.608 199.04C375.03 202.414 372.472 192.52 357.91 190.865C342.638 190.865 343.826 202.978 332.806 204.021C314.918 205.713 326.568 176.825 294.015 179.279C279.474 180.725 272.226 189.122 270.818 191.489C268.049 196.148 267.179 201.647 259.739 204.021C254.2 205.788 240.005 205.145 226.849 199.04Z" fill="url(#paint0_linear_17615_106355)"/>
<path d="M213 191.515L226.849 199.024C240.005 205.096 254.2 205.735 259.739 203.978C267.179 201.617 266.637 198.53 270.818 191.515C275 184.499 279.474 180.809 294.015 179.371C322.858 176.518 314.733 206.093 332.215 203.581C341.812 202.202 340.862 194.679 353.911 191.515C367.435 188.234 370.81 202.023 381.608 199.024C391.101 196.389 389.033 183.561 400.304 182.087C411.576 180.614 419 189.278 419 189.278" stroke="#2DE677" stroke-width="3" stroke-linecap="round" stroke-linejoin="round"/>
<path d="M452 142C450.9 142 450 142.9 450 144C450 145.1 450.9 146 452 146C453.1 146 454 145.1 454 144C454 142.9 453.1 142 452 142Z" fill="#0071FF"/>
<path d="M466 142C464.9 142 464 142.9 464 144C464 145.1 464.9 146 466 146C467.1 146 468 145.1 468 144C468 142.9 467.1 142 466 142Z" fill="#0071FF"/>
<path d="M459 142C457.9 142 457 142.9 457 144C457 145.1 457.9 146 459 146C460.1 146 461 145.1 461 144C461 142.9 460.1 142 459 142Z" fill="#0071FF"/>
<g filter="url(#filter0_d_17615_106355)">
<rect width="554" height="132" rx="8" fill="white"/>
<path d="M170.232 60V48.8H174.216C175.075 48.8 175.8 48.928 176.392 49.184C176.984 49.44 177.432 49.8347 177.736 50.368C178.045 50.9013 178.2 51.584 178.2 52.416C178.2 53.2587 178.048 53.9547 177.744 54.504C177.44 55.048 176.995 55.4533 176.408 55.72C175.821 55.9813 175.107 56.112 174.264 56.112H172.28V60H170.232ZM172.28 54.4H174.024C174.723 54.4 175.245 54.2427 175.592 53.928C175.944 53.6133 176.12 53.12 176.12 52.448C176.12 51.776 175.941 51.2853 175.584 50.976C175.232 50.6667 174.696 50.512 173.976 50.512H172.28V54.4ZM179.334 60V52H181.19L181.238 52.848C181.441 52.624 181.726 52.4 182.094 52.176C182.462 51.952 182.865 51.84 183.302 51.84C183.43 51.84 183.548 51.8507 183.654 51.872L183.51 53.824C183.393 53.792 183.276 53.7707 183.158 53.76C183.046 53.7493 182.934 53.744 182.822 53.744C182.486 53.744 182.18 53.8213 181.902 53.976C181.625 54.1307 181.43 54.32 181.318 54.544V60H179.334ZM188.107 60.16C187.238 60.16 186.496 59.9707 185.883 59.592C185.27 59.2133 184.8 58.7093 184.475 58.08C184.155 57.4507 183.995 56.7627 183.995 56.016C183.995 55.264 184.155 54.5707 184.475 53.936C184.8 53.3013 185.27 52.7947 185.883 52.416C186.496 52.032 187.238 51.84 188.107 51.84C188.976 51.84 189.718 52.032 190.331 52.416C190.944 52.7947 191.411 53.3013 191.731 53.936C192.056 54.5707 192.219 55.264 192.219 56.016C192.219 56.7627 192.056 57.4507 191.731 58.08C191.411 58.7093 190.944 59.2133 190.331 59.592C189.718 59.9707 188.976 60.16 188.107 60.16ZM188.107 58.528C188.774 58.528 189.286 58.296 189.643 57.832C190.006 57.3627 190.187 56.7573 190.187 56.016C190.187 55.264 190.006 54.6533 189.643 54.184C189.286 53.7093 188.774 53.472 188.107 53.472C187.446 53.472 186.934 53.7093 186.571 54.184C186.208 54.6533 186.027 55.264 186.027 56.016C186.027 56.7573 186.208 57.3627 186.571 57.832C186.934 58.296 187.446 58.528 188.107 58.528ZM196.832 60.16C196.021 60.16 195.339 59.9707 194.784 59.592C194.235 59.2133 193.819 58.7093 193.536 58.08C193.259 57.4507 193.12 56.7627 193.12 56.016C193.12 55.2693 193.259 54.5813 193.536 53.952C193.819 53.3227 194.235 52.8187 194.784 52.44C195.339 52.0613 196.021 51.872 196.832 51.872C197.419 51.872 197.915 51.9707 198.32 52.168C198.725 52.36 199.083 52.608 199.392 52.912L198.912 53.328V48H200.896V60H199.024L198.928 58.64L199.504 59.056C199.131 59.3973 198.744 59.6667 198.344 59.864C197.944 60.0613 197.44 60.16 196.832 60.16ZM197.12 58.528C197.557 58.528 197.915 58.4213 198.192 58.208C198.469 57.9947 198.675 57.7013 198.808 57.328C198.941 56.9493 199.008 56.512 199.008 56.016C199.008 55.52 198.941 55.0853 198.808 54.712C198.675 54.3333 198.469 54.0373 198.192 53.824C197.915 53.6107 197.557 53.504 197.12 53.504C196.704 53.504 196.349 53.6107 196.056 53.824C195.763 54.0373 195.539 54.3333 195.384 54.712C195.229 55.0853 195.152 55.52 195.152 56.016C195.152 56.512 195.229 56.9493 195.384 57.328C195.539 57.7013 195.763 57.9947 196.056 58.208C196.349 58.4213 196.704 58.528 197.12 58.528ZM206.053 60.16C205.221 60.16 204.557 59.9947 204.061 59.664C203.565 59.3333 203.207 58.88 202.988 58.304C202.77 57.7227 202.661 57.056 202.661 56.304V52H204.645V56.304C204.645 57.0453 204.767 57.5973 205.013 57.96C205.263 58.3173 205.669 58.496 206.229 58.496C206.677 58.496 207.047 58.3893 207.341 58.176C207.639 57.9627 207.887 57.664 208.085 57.28L207.733 58.288V52H209.717V60H207.861L207.765 58.608L208.197 59.168C208.005 59.4133 207.701 59.64 207.285 59.848C206.874 60.056 206.463 60.16 206.053 60.16ZM215.281 60.16C214.363 60.16 213.593 59.9733 212.969 59.6C212.35 59.2213 211.881 58.72 211.561 58.096C211.246 57.4667 211.089 56.7733 211.089 56.016C211.089 55.2533 211.246 54.5573 211.561 53.928C211.875 53.2933 212.347 52.7867 212.977 52.408C213.606 52.0293 214.395 51.84 215.345 51.84C215.793 51.84 216.198 51.8907 216.561 51.992C216.923 52.088 217.233 52.208 217.489 52.352L217.329 53.952C217.083 53.824 216.806 53.7173 216.497 53.632C216.193 53.5467 215.873 53.504 215.537 53.504C214.769 53.504 214.174 53.736 213.753 54.2C213.331 54.664 213.121 55.2693 213.121 56.016C213.121 56.7253 213.337 57.3227 213.769 57.808C214.201 58.288 214.785 58.528 215.521 58.528C215.835 58.528 216.145 58.4827 216.449 58.392C216.758 58.296 217.057 58.1653 217.345 58L217.521 59.68C217.243 59.824 216.907 59.9387 216.513 60.024C216.123 60.1147 215.713 60.16 215.281 60.16ZM221.458 60.16C220.957 60.16 220.549 60.0587 220.234 59.856C219.919 59.648 219.687 59.384 219.538 59.064C219.389 58.744 219.314 58.4107 219.314 58.064V53.632H218.178L218.354 52H219.314V50.24L221.298 50.032V52H223.058V53.632H221.298V57.248C221.298 57.6533 221.322 57.9467 221.37 58.128C221.418 58.304 221.527 58.416 221.698 58.464C221.869 58.5067 222.141 58.528 222.514 58.528H223.058L222.882 60.16H221.458ZM229.32 60V51.696C229.112 51.8293 228.89 51.9467 228.656 52.048C228.426 52.1493 228.178 52.224 227.912 52.272L227.736 50.544C227.965 50.496 228.221 50.3813 228.504 50.2C228.786 50.0187 229.048 49.8053 229.288 49.56C229.528 49.3093 229.698 49.056 229.8 48.8H231.368V60H229.32Z" fill="#202833"/>
<path d="M170.12 84V74.2H171.562L176.392 81.536V74.2H177.736V84H176.602L171.45 76.258V84H170.12ZM182.8 83.986L185.474 79.926C185.768 79.4827 186.02 79.079 186.23 78.715C186.44 78.351 186.599 78.015 186.706 77.707C186.818 77.3943 186.874 77.098 186.874 76.818C186.874 76.3327 186.736 75.9477 186.461 75.663C186.19 75.3783 185.819 75.236 185.348 75.236C184.881 75.236 184.45 75.3363 184.053 75.537C183.661 75.7377 183.299 76.006 182.968 76.342L182.8 74.942C183.122 74.6807 183.509 74.4567 183.962 74.27C184.419 74.0833 184.928 73.99 185.488 73.99C186.085 73.99 186.587 74.109 186.993 74.347C187.399 74.585 187.705 74.907 187.91 75.313C188.115 75.719 188.218 76.174 188.218 76.678C188.218 77.112 188.16 77.525 188.043 77.917C187.926 78.3043 187.751 78.708 187.518 79.128C187.285 79.548 186.995 80.0193 186.65 80.542L185.166 82.782H188.596V83.986H182.8ZM194.23 84.196C193.366 84.196 192.627 83.9743 192.011 83.531C191.395 83.0877 190.921 82.4763 190.59 81.697C190.263 80.9177 190.1 80.024 190.1 79.016C190.1 78.008 190.275 77.1283 190.625 76.377C190.975 75.6257 191.46 75.0423 192.081 74.627C192.701 74.2117 193.418 74.004 194.23 74.004C195.06 74.004 195.784 74.2117 196.4 74.627C197.02 75.0423 197.501 75.6257 197.842 76.377C198.187 77.1283 198.36 78.008 198.36 79.016C198.36 80.024 198.196 80.9177 197.87 81.697C197.543 82.4763 197.072 83.0877 196.456 83.531C195.84 83.9743 195.098 84.196 194.23 84.196ZM194.23 82.992C194.808 82.992 195.298 82.838 195.7 82.53C196.106 82.222 196.414 81.7717 196.624 81.179C196.838 80.5863 196.946 79.8653 196.946 79.016C196.946 77.742 196.698 76.79 196.204 76.16C195.714 75.5253 195.056 75.208 194.23 75.208C193.446 75.208 192.797 75.5253 192.284 76.16C191.77 76.79 191.514 77.742 191.514 79.016C191.514 79.8653 191.619 80.5863 191.829 81.179C192.043 81.7717 192.351 82.222 192.753 82.53C193.159 82.838 193.651 82.992 194.23 82.992ZM204.005 84.196C203.142 84.196 202.402 83.9743 201.786 83.531C201.17 83.0877 200.696 82.4763 200.365 81.697C200.038 80.9177 199.875 80.024 199.875 79.016C199.875 78.008 200.05 77.1283 200.4 76.377C200.75 75.6257 201.235 75.0423 201.856 74.627C202.477 74.2117 203.193 74.004 204.005 74.004C204.836 74.004 205.559 74.2117 206.175 74.627C206.796 75.0423 207.276 75.6257 207.617 76.377C207.962 77.1283 208.135 78.008 208.135 79.016C208.135 80.024 207.972 80.9177 207.645 81.697C207.318 82.4763 206.847 83.0877 206.231 83.531C205.615 83.9743 204.873 84.196 204.005 84.196ZM204.005 82.992C204.584 82.992 205.074 82.838 205.475 82.53C205.881 82.222 206.189 81.7717 206.399 81.179C206.614 80.5863 206.721 79.8653 206.721 79.016C206.721 77.742 206.474 76.79 205.979 76.16C205.489 75.5253 204.831 75.208 204.005 75.208C203.221 75.208 202.572 75.5253 202.059 76.16C201.546 76.79 201.289 77.742 201.289 79.016C201.289 79.8653 201.394 80.5863 201.604 81.179C201.819 81.7717 202.127 82.222 202.528 82.53C202.934 82.838 203.426 82.992 204.005 82.992ZM210.244 85.498H209.446L209.95 84H209.46V82.516H210.972V83.86L210.244 85.498ZM216.324 84.196C215.46 84.196 214.721 83.9743 214.105 83.531C213.489 83.0877 213.015 82.4763 212.684 81.697C212.357 80.9177 212.194 80.024 212.194 79.016C212.194 78.008 212.369 77.1283 212.719 76.377C213.069 75.6257 213.554 75.0423 214.175 74.627C214.795 74.2117 215.512 74.004 216.324 74.004C217.154 74.004 217.878 74.2117 218.494 74.627C219.114 75.0423 219.595 75.6257 219.936 76.377C220.281 77.1283 220.454 78.008 220.454 79.016C220.454 80.024 220.29 80.9177 219.964 81.697C219.637 82.4763 219.166 83.0877 218.55 83.531C217.934 83.9743 217.192 84.196 216.324 84.196ZM216.324 82.992C216.902 82.992 217.392 82.838 217.794 82.53C218.2 82.222 218.508 81.7717 218.718 81.179C218.932 80.5863 219.04 79.8653 219.04 79.016C219.04 77.742 218.792 76.79 218.298 76.16C217.808 75.5253 217.15 75.208 216.324 75.208C215.54 75.208 214.891 75.5253 214.378 76.16C213.864 76.79 213.608 77.742 213.608 79.016C213.608 79.8653 213.713 80.5863 213.923 81.179C214.137 81.7717 214.445 82.222 214.847 82.53C215.253 82.838 215.745 82.992 216.324 82.992ZM226.099 84.196C225.236 84.196 224.496 83.9743 223.88 83.531C223.264 83.0877 222.79 82.4763 222.459 81.697C222.132 80.9177 221.969 80.024 221.969 79.016C221.969 78.008 222.144 77.1283 222.494 76.377C222.844 75.6257 223.329 75.0423 223.95 74.627C224.571 74.2117 225.287 74.004 226.099 74.004C226.93 74.004 227.653 74.2117 228.269 74.627C228.89 75.0423 229.37 75.6257 229.711 76.377C230.056 77.1283 230.229 78.008 230.229 79.016C230.229 80.024 230.066 80.9177 229.739 81.697C229.412 82.4763 228.941 83.0877 228.325 83.531C227.709 83.9743 226.967 84.196 226.099 84.196ZM226.099 82.992C226.678 82.992 227.168 82.838 227.569 82.53C227.975 82.222 228.283 81.7717 228.493 81.179C228.708 80.5863 228.815 79.8653 228.815 79.016C228.815 77.742 228.568 76.79 228.073 76.16C227.583 75.5253 226.925 75.208 226.099 75.208C225.315 75.208 224.666 75.5253 224.153 76.16C223.64 76.79 223.383 77.742 223.383 79.016C223.383 79.8653 223.488 80.5863 223.698 81.179C223.913 81.7717 224.221 82.222 224.622 82.53C225.028 82.838 225.52 82.992 226.099 82.992ZM235.874 84.196C235.011 84.196 234.271 83.9743 233.655 83.531C233.039 83.0877 232.566 82.4763 232.234 81.697C231.908 80.9177 231.744 80.024 231.744 79.016C231.744 78.008 231.919 77.1283 232.269 76.377C232.619 75.6257 233.105 75.0423 233.725 74.627C234.346 74.2117 235.062 74.004 235.874 74.004C236.705 74.004 237.428 74.2117 238.044 74.627C238.665 75.0423 239.146 75.6257 239.486 76.377C239.832 77.1283 240.004 78.008 240.004 79.016C240.004 80.024 239.841 80.9177 239.514 81.697C239.188 82.4763 238.716 83.0877 238.1 83.531C237.484 83.9743 236.742 84.196 235.874 84.196ZM235.874 82.992C236.453 82.992 236.943 82.838 237.344 82.53C237.75 82.222 238.058 81.7717 238.268 81.179C238.483 80.5863 238.59 79.8653 238.59 79.016C238.59 77.742 238.343 76.79 237.848 76.16C237.358 75.5253 236.7 75.208 235.874 75.208C235.09 75.208 234.442 75.5253 233.928 76.16C233.415 76.79 233.158 77.742 233.158 79.016C233.158 79.8653 233.263 80.5863 233.473 81.179C233.688 81.7717 233.996 82.222 234.397 82.53C234.803 82.838 235.296 82.992 235.874 82.992ZM241.218 84V82.516H242.73V84H241.218ZM248.083 84.196C247.22 84.196 246.48 83.9743 245.864 83.531C245.248 83.0877 244.775 82.4763 244.443 81.697C244.117 80.9177 243.953 80.024 243.953 79.016C243.953 78.008 244.128 77.1283 244.478 76.377C244.828 75.6257 245.314 75.0423 245.934 74.627C246.555 74.2117 247.271 74.004 248.083 74.004C248.914 74.004 249.637 74.2117 250.253 74.627C250.874 75.0423 251.355 75.6257 251.695 76.377C252.041 77.1283 252.213 78.008 252.213 79.016C252.213 80.024 252.05 80.9177 251.723 81.697C251.397 82.4763 250.925 83.0877 250.309 83.531C249.693 83.9743 248.951 84.196 248.083 84.196ZM248.083 82.992C248.662 82.992 249.152 82.838 249.553 82.53C249.959 82.222 250.267 81.7717 250.477 81.179C250.692 80.5863 250.799 79.8653 250.799 79.016C250.799 77.742 250.552 76.79 250.057 76.16C249.567 75.5253 248.909 75.208 248.083 75.208C247.299 75.208 246.651 75.5253 246.137 76.16C245.624 76.79 245.367 77.742 245.367 79.016C245.367 79.8653 245.472 80.5863 245.682 81.179C245.897 81.7717 246.205 82.222 246.606 82.53C247.012 82.838 247.505 82.992 248.083 82.992ZM257.859 84.196C256.995 84.196 256.256 83.9743 255.64 83.531C255.024 83.0877 254.55 82.4763 254.219 81.697C253.892 80.9177 253.729 80.024 253.729 79.016C253.729 78.008 253.904 77.1283 254.254 76.377C254.604 75.6257 255.089 75.0423 255.71 74.627C256.33 74.2117 257.047 74.004 257.859 74.004C258.689 74.004 259.413 74.2117 260.029 74.627C260.649 75.0423 261.13 75.6257 261.471 76.377C261.816 77.1283 261.989 78.008 261.989 79.016C261.989 80.024 261.825 80.9177 261.499 81.697C261.172 82.4763 260.701 83.0877 260.085 83.531C259.469 83.9743 258.727 84.196 257.859 84.196ZM257.859 82.992C258.437 82.992 258.927 82.838 259.329 82.53C259.735 82.222 260.043 81.7717 260.253 81.179C260.467 80.5863 260.575 79.8653 260.575 79.016C260.575 77.742 260.327 76.79 259.833 76.16C259.343 75.5253 258.685 75.208 257.859 75.208C257.075 75.208 256.426 75.5253 255.913 76.16C255.399 76.79 255.143 77.742 255.143 79.016C255.143 79.8653 255.248 80.5863 255.458 81.179C255.672 81.7717 255.98 82.222 256.382 82.53C256.788 82.838 257.28 82.992 257.859 82.992Z" fill="#202833"/>
<path d="M520 73C520 74.1 520.9 75 522 75C523.1 75 524 74.1 524 73C524 71.9 523.1 71 522 71C520.9 71 520 71.9 520 73Z" fill="#0071FF"/>
<path d="M520 59C520 60.1 520.9 61 522 61C523.1 61 524 60.1 524 59C524 57.9 523.1 57 522 57C520.9 57 520 57.9 520 59Z" fill="#0071FF"/>
<path d="M520 66C520 67.1 520.9 68 522 68C523.1 68 524 67.1 524 66C524 64.9 523.1 64 522 64C520.9 64 520 64.9 520 66Z" fill="#0071FF"/>
<path d="M57.6112 37.4386C57.6112 37.4386 70.8026 47.4488 90.8568 28.7314C108.667 12.1086 123.209 38.3356 123.311 50.8952C123.443 67.1652 105.501 80.1832 114.208 90.8693C122.915 101.555 96.9403 119.202 82.9412 103.93C65.5267 84.9325 60.8089 100.368 50.8828 100.368C43.7587 100.368 29.1321 82.6665 39.0093 69.497C47.3207 58.4151 42.7878 54.7372 40.5927 50.8952C37.4263 45.3543 44.9462 30.3145 57.6112 37.4386Z" fill="#FFDFDF"/>
<path d="M116.437 30.6152C116.437 30.8614 116.427 31.1041 116.405 31.3443C116.214 33.5153 115.18 35.5249 113.525 36.9427C111.87 38.3606 109.725 39.0739 107.55 38.93C105.376 38.7861 103.344 37.7963 101.89 36.1727C100.437 34.549 99.6765 32.4207 99.7728 30.2435C99.8691 28.0663 100.814 26.0133 102.406 24.5244C103.997 23.0354 106.108 22.2289 108.287 22.2775C110.466 22.3261 112.539 23.2259 114.062 24.7844C115.586 26.3428 116.438 28.4358 116.437 30.6152V30.6152Z" fill="#A2BDFF"/>
<path d="M109.153 31.2536C108.616 31.672 107.864 32.5052 108.091 34.3591C107.839 35.0787 106.942 36.4533 106.942 37.1106C106.942 37.768 105.866 37.8878 105.747 37.708C105.627 37.5282 105.568 35.2577 104.91 34.8393C104.253 34.421 104.372 32.5085 104.372 32.5085C104.372 32.5085 104.611 31.7912 103.834 31.3131C103.057 30.835 102.516 29.6995 103.206 29.042C103.894 28.3846 102.041 27.9662 101.802 27.4882C101.701 27.2852 101.311 26.8307 100.897 26.3777C101.792 24.8633 103.14 23.6689 104.751 22.9639C105.362 23.6019 105.89 24.4186 105.747 25.2768C105.771 25.6951 107.586 26.3526 106.697 27.2488C105.807 28.1453 104.598 29.4006 106.697 29.8187C108.795 30.2377 109.691 30.8351 109.153 31.2536Z" fill="#0071FF"/>
<path d="M113.928 24.6494C113.481 25.5925 112.359 26.3527 111.724 26.3527C111.007 25.5755 109.453 26.6516 109.307 25.3964C109.222 24.6649 110.056 23.5294 110.767 22.707C111.953 23.1093 113.033 23.7732 113.928 24.6494Z" fill="#0071FF"/>
<path d="M116.406 31.3444C116.228 33.4081 115.285 35.331 113.764 36.7364C113.488 36.4722 113.255 36.1627 113.337 35.9152C113.516 35.3773 114.246 34.2418 114.12 33.5246C114.003 32.8552 114.621 30.8304 116.406 31.3444Z" fill="#0071FF"/>
<path d="M102.833 72.7766C102.566 74.4232 102.124 76.0365 101.515 77.5894C97.5454 87.7586 86.8957 94.129 75.6882 92.2982C69.5008 91.2853 63.9688 87.8569 60.3081 82.7668C56.6475 77.6766 55.1579 71.3412 56.1666 65.1531C56.2179 64.8392 56.2777 64.5226 56.3401 64.2145C58.8686 51.8438 70.7385 43.5776 83.3117 45.6313C87.0634 46.2378 90.6121 47.7452 93.6535 50.0242C94.6528 50.7704 95.5904 51.5958 96.4572 52.4926C99.0312 55.1401 100.949 58.3541 102.056 61.8767C103.163 65.3992 103.429 69.1323 102.833 72.7763V72.7766Z" fill="#699CFF"/>
<path d="M101.515 77.5897C97.013 80.4884 91.696 83.1693 85.8343 85.3865C79.8655 87.6427 74.0042 89.1669 68.6321 89.9654C56.0082 91.8475 46.0941 89.7444 43.8603 83.8357C41.7684 78.3168 46.9137 70.8416 56.3402 64.2149C56.2778 64.523 56.218 64.8395 56.1667 65.1535C55.9783 66.3027 55.8761 67.4644 55.8609 68.6289C50.4297 72.8223 47.6033 76.9292 48.7175 79.8751C49.8008 82.7393 54.4001 83.9583 60.9431 83.6127C67.3397 83.2758 75.5939 81.4332 84.2336 78.167C91.706 75.3387 98.2586 71.9007 103.138 68.4473C109.67 63.8295 113.212 59.1828 111.99 55.9411C110.732 52.6133 104.733 51.5041 96.4573 52.4932C95.5905 51.5965 94.6528 50.771 93.6535 50.0248C105.238 48.686 114.167 50.8739 116.272 56.4392C118.526 62.3916 112.377 70.6093 101.515 77.5897Z" fill="#0071FF"/>
</g>
</g>
<defs>
<filter id="filter0_d_17615_106355" x="-117" y="-113" width="788" height="366" filterUnits="userSpaceOnUse" color-interpolation-filters="sRGB">
<feFlood flood-opacity="0" result="BackgroundImageFix"/>
<feColorMatrix in="SourceAlpha" type="matrix" values="0 0 0 0 0 0 0 0 0 0 0 0 0 0 0 0 0 0 127 0" result="hardAlpha"/>
<feOffset dy="4"/>
<feGaussianBlur stdDeviation="58.5"/>
<feComposite in2="hardAlpha" operator="out"/>
<feColorMatrix type="matrix" values="0 0 0 0 0.270833 0 0 0 0 0.593954 0 0 0 0 1 0 0 0 0.19 0"/>
<feBlend mode="normal" in2="BackgroundImageFix" result="effect1_dropShadow_17615_106355"/>
<feBlend mode="normal" in="SourceGraphic" in2="effect1_dropShadow_17615_106355" result="shape"/>
</filter>
<linearGradient id="paint0_linear_17615_106355" x1="316" y1="179" x2="316" y2="243" gradientUnits="userSpaceOnUse">
<stop stop-color="#2DE577"/>
<stop offset="1" stop-color="#2DE577" stop-opacity="0"/>
</linearGradient>
<clipPath id="clip0_17615_106355">
<rect width="554" height="267" fill="white"/>
</clipPath>
</defs>
</svg>
